<svg fill="#dcdcdc" xmlns="http://www.w3.org/2000/svg" viewBox="0 0 1024 1024"><path d="M632.75 288h-420.5L2 652.16l210.25 364.17h420.5L843 652.16zM616 590c-129 8-145 9-291 18 54 105 148.5 72.5 189 32 43 39 56 51 56 51s-48 64-140 64-189-69-189-195 108-190 186-190c101 0 202 80 189 220z"/><path d="M429 446c-83 0-109 85-109 85l213-13s-30-72-104-72zm-80-220l68-6s40-64 62-64 26 71 26 71l68 13S584 7 514 7c-63 0-165 219-165 219zm392 126c32 33 45 47 45 47s75-7 91 14-35 66-35 66l34 62s146-114 146-177c0-91-253-24-281-12z"/></svg>