<svg xmlns="http://www.w3.org/2000/svg" xmlns:xlink="http://www.w3.org/1999/xlink" viewBox="0 0 392.68 104.06"><defs><linearGradient id="b" x1="65.36" y1="193.54" x2="25.79" y2="262.08" gradientTransform="rotate(.52 19915.13 36.341)" gradientUnits="userSpaceOnUse"><stop offset="0" stop-color="#e67e22"/><stop offset="1" stop-color="#d35400"/></linearGradient><linearGradient id="a" x1="44.95" y1="188.07" x2="29.64" y2="214.59" gradientTransform="rotate(.52 19915.13 36.341)" gradientUnits="userSpaceOnUse"><stop offset="0" stop-color="#fff"/><stop offset="1" stop-color="#c8c8c8"/></linearGradient><linearGradient id="c" x1="355.52" y1="134.87" x2="253.68" y2="311.26" gradientTransform="translate(-78 -154)" xlink:href="#a"/></defs><g data-name="Layer 2"><g data-name="Layer 1"><path d="M0 10.35s39.23-27.54 63.64 7.23C81 44.06 61.3 71.13 68 86.38s11.26 14.27 11.53 14.53c.94.88-18.45 11.63-35.35-12.44S39 46.89 23.31 24.6C13.3 10.33 0 10.35 0 10.35z" fill="url(#b)"/><path d="M54 23.11l8.46 3.71a38.57 38.57 0 00-3.29-6.18c-7-10-16.12-15.09-27-15.19a48.48 48.48 0 00-17.89 3.63 40.42 40.42 0 0113.49 12.39 54.37 54.37 0 018 16.76l2.85-8.72L44 36.09l2.27-9.78L53.86 34z" fill="url(#a)"/><path d="M126.31 61.72H86.52v39.9h-7.2V16.31h52.85v6.09H86.52v33.22h39.79zm26.69 39.9h-7v-90h7zm59.85-8.03q-6.33 9.21-20.21 9.2-10.14 0-15.41-5.89t-5.39-17.43V38.22h7v40.37q0 18.1 14.65 18.11 15.22 0 19.27-12.6V38.22h7v63.4H213zm30.15 8.03V44h-10.46v-5.78H243v-7.68q0-9.72 4.95-14.94t13.8-5.21a27 27 0 017.44 1l-.53 5.81a27.22 27.22 0 00-6.38-.71q-5.81 0-9 3.62t-3.22 10.25v7.87h15.12V44h-15.12v57.66zm39.75 0V44h-10.48v-5.78h10.48v-7.68q0-9.72 5-14.94t13.79-5.21a27 27 0 017.45 1l-.53 5.81a27.31 27.31 0 00-6.39-.71q-5.8 0-9 3.62t-3.22 10.25v7.87h15.05V44h-15.11v57.66zm42.54 0h-7v-90h7zm43.6 1.17a27.57 27.57 0 01-14.62-4A27.14 27.14 0 01344.1 87.7a34.59 34.59 0 01-3.63-16v-2.48A37.38 37.38 0 01344 52.75a28.25 28.25 0 019.88-11.51 24.38 24.38 0 0113.71-4.19q11.53 0 18.31 7.88t6.77 21.53v3.93h-45.23v1.35q0 10.77 6.18 18a19.68 19.68 0 0015.56 7.17 22.79 22.79 0 009.93-2.05 21.89 21.89 0 007.82-6.56l4.4 3.34q-7.74 11.15-22.44 11.15zM367.6 43a17.5 17.5 0 00-13.33 5.8q-5.43 5.79-6.59 15.58h38v-.76q-.29-9.13-5.21-14.88A16.15 16.15 0 00367.6 43z"/><path d="M126.31 61.72H86.52v39.9h-7.2V16.31h52.85v6.09H86.52v33.22h39.79zm26.69 39.9h-7v-90h7zm59.85-8.03q-6.33 9.21-20.21 9.2-10.14 0-15.41-5.89t-5.39-17.43V38.22h7v40.37q0 18.1 14.65 18.11 15.22 0 19.27-12.6V38.22h7v63.4H213zm30.15 8.03V44h-10.46v-5.78H243v-7.68q0-9.72 4.95-14.94t13.8-5.21a27 27 0 017.44 1l-.53 5.81a27.22 27.22 0 00-6.38-.71q-5.81 0-9 3.62t-3.22 10.25v7.87h15.12V44h-15.12v57.66zm39.75 0V44h-10.48v-5.78h10.48v-7.68q0-9.72 5-14.94t13.79-5.21a27 27 0 017.45 1l-.53 5.81a27.31 27.31 0 00-6.39-.71q-5.8 0-9 3.62t-3.22 10.25v7.87h15.05V44h-15.11v57.66zm42.54 0h-7v-90h7zm43.6 1.17a27.57 27.57 0 01-14.62-4A27.14 27.14 0 01344.1 87.7a34.59 34.59 0 01-3.63-16v-2.48A37.38 37.38 0 01344 52.75a28.25 28.25 0 019.88-11.51 24.38 24.38 0 0113.71-4.19q11.53 0 18.31 7.88t6.77 21.53v3.93h-45.23v1.35q0 10.77 6.18 18a19.68 19.68 0 0015.56 7.17 22.79 22.79 0 009.93-2.05 21.89 21.89 0 007.82-6.56l4.4 3.34q-7.74 11.15-22.44 11.15zM367.6 43a17.5 17.5 0 00-13.33 5.8q-5.43 5.79-6.59 15.58h38v-.76q-.29-9.13-5.21-14.88A16.15 16.15 0 00367.6 43z" fill="url(#c)"/></g></g></svg>