<svg xmlns="http://www.w3.org/2000/svg" viewBox="0 0 117.71 53.55"><defs><linearGradient id="a" x1="86.25" y1="163.55" x2="46.68" y2="232.09" gradientTransform="rotate(-62.27 -78.093 124.808)" gradientUnits="userSpaceOnUse"><stop offset="0" stop-color="#e67e22"/><stop offset="1" stop-color="#d35400"/></linearGradient><linearGradient id="b" x1="65.84" y1="158.09" x2="50.53" y2="184.61" gradientTransform="rotate(-62.27 -78.093 124.808)" gradientUnits="userSpaceOnUse"><stop offset="0" stop-color="#fff"/><stop offset="1" stop-color="#c8c8c8"/></linearGradient></defs><g data-name="Layer 2"><g data-name="Layer 1"><path d="M.37 53.55S-6.18 6.07 35.9.26c31.49-3.34 46.55 26.56 63.19 27.57s17.83-3.49 18.19-3.61c1.21-.43 1.9 21.73-27.23 25.75S50.68 35.61 23.7 39.33C6.43 41.72.37 53.55.37 53.55z" fill="url(#a)"/><path d="M36.39 11.39l7.17-5.82a38.3 38.3 0 00-7 .1c-12.09 1.69-20.79 7.44-25.87 17.09a48.37 48.37 0 00-4.92 17.51A40.31 40.31 0 0123 33.94a54.69 54.69 0 0118.59.52l-6.46-6.52 8.32-1.78-7.66-6.5L46 16.46z" fill="url(#b)"/></g></g></svg>