<svg fill="#dcdcdc" xmlns="http://www.w3.org/2000/svg" viewBox="0 0 1024 1024"><path d="M0 804.75h175.72c-23-237.43 307.52-210.23 307.52-210.23v-47.07c-1.05-99.37-215.47-67-284.51-43.93L210.24 401C650.59 304.78 614 534.9 614 534.9v269.85h106.67c178.86 0 263.58-151.66 274-252.07l-125.47 5.23 3.14-95.19-94.14-2.09-1.05-103.55-108.78-36.61L683 219H280.32C129.7 219 0 355 0 497.24z"/><path d="M717.53 219H1024c-25.1 68-27.2 300.2-27.2 300.2l-92 5.23 2.09-96.23-95.18-1-1-92L706 303.74zM322.16 804.75s140.68.53 140.16 0c7.84 0 23-17.25 23-34.51.52.52-2.62-104.08-2.62-104.08-183-6.27-180.43 81.59-180.43 90.48a72.45 72.45 0 0019.89 48.11z"/></svg>