<svg fill="#dcdcdc" xmlns="http://www.w3.org/2000/svg" viewBox="0 0 1024 1024"><path d="M277.2 18.58C123.54 22.91 73.76.19 22.91 57.54-9.56 94.33 1.26 188.47 3.43 309.67 47.79 192.8 133.28 80.26 277.2 18.58zM2.35 704.64C.18 850.72-8.48 930.8 26.15 969.75c47.61 51.94 132 32.47 256.46 32.47C118.13 942.7 53.2 838.82 2.35 704.64zm768.29 253.21C833.4 897.25 883.18 831.24 907 778.22s38.53-155.49 23.81-282.43c-14.07-84.4-37.87-195.86-137.43-294.33C696 111.64 624.56 60.79 393 100.82c334.37-160.15 564.85 48.7 626.53 216.42 2.17-133.09 15.15-212.09-18.39-257.54-37.88-53-98.47-40-318.14-40 0 0 35.71 11.9 51.94 20.56-215.35-37.91-335.46 3.21-519.42 187.17S27.23 615.9 157.09 782.55C87.83 738.18 29.4 666.76 2.35 572.62c-2.17 46.53 0 51.94 0 51.94C66.19 781.47 272.87 894 552.05 894c90.43 1.7 191.54-27.06 251.05-79 73.59-60.6 105-130.93 120.12-194.78-1.09 59.52-13 128.77-51.94 185s-107.13 155.83-257.55 198c331.13-6.49 321.39 15.15 376.58-28.14 49.77-30.3 29.21-167.72 29.21-286.75-48.69 136.42-142.83 210-248.88 269.52zM577.86 306.51c26.87-58.69 82.33-90.84 123.89-71.82s53.47 82 26.61 140.71-82.36 90.84-123.89 71.82S551 365.2 577.86 306.51zM457.08 177.65c44.68 0 80.92 52.35 80.92 116.87s-36.23 116.87-80.91 116.87-80.91-52.33-80.91-116.87 36.21-116.87 80.9-116.87zm-242 273.65c-11.91-59.11 12-113.79 53.32-122.12s84.55 32.83 96.46 91.94-12 113.79-53.33 122.13-84.53-32.84-96.46-91.95zm423.54 371.29c-76.83 32.46-105-54.11-180.71-66s-136.34 28.13-181.79-21.64S306.42 604 340 567.21s77.91-61.68 150.41-61.68c82.24 6.49 122.28 73.58 140.68 118 17.27 41.07 71.38 174.17 7.53 199.06zm162.26-236.37C764 634 706.32 651.34 672.1 624.92s-32-86.59 4.86-134.38 94.56-65.12 128.78-38.69 32.05 86.58-4.86 134.37z"/></svg>